<svg width="86" height="48" viewBox="0 0 86 48" fill="none" xmlns="http://www.w3.org/2000/svg">
<g clip-path="url(#clip0_117_823)">
<path d="M83.2497 35.3576C79.927 35.3576 72.7181 35.2746 64.8475 34.669C50.3382 33.5498 40.5921 31.2675 35.8816 27.8845C35.5061 27.6151 35.4213 27.0923 35.687 26.7147C35.9549 26.337 36.4747 26.2518 36.8503 26.5189C46.6651 33.5705 78.7751 33.7063 84.3306 33.6764V26.2541L42.5248 1.80614L1.66939 25.4642V34.5078C1.66939 34.9707 1.29613 35.346 0.835841 35.346C0.375556 35.346 0 34.9707 0 34.5078V24.9782C0 24.6789 0.160298 24.4025 0.416775 24.2528L42.1103 0.113489C42.3691 -0.0362019 42.6874 -0.0362019 42.9462 0.113489L85.5855 25.0473C85.842 25.197 86 25.4734 86 25.7728V34.5078C86 34.9661 85.6359 35.3391 85.1802 35.346C85.155 35.346 84.4589 35.3576 83.2497 35.3576Z" fill="#141414"/>
<path d="M36.6901 28.7567C36.4222 28.7567 36.1612 28.6255 36.0009 28.3906C35.9528 28.3215 34.8353 26.6541 34.5834 24.2706C34.3498 22.0575 34.8376 18.7942 38.4809 15.8073C44.9913 10.4737 47.6958 10.1467 47.9843 10.126C48.3965 10.0984 48.7721 10.3816 48.8568 10.7892C48.882 10.9067 49.4499 13.7324 48.2545 17.3664C47.1622 20.6826 44.3318 25.3346 37.0336 28.6784C36.9214 28.7291 36.8046 28.7544 36.6879 28.7544L36.6901 28.7567ZM47.3248 12.0351C47.0179 12.1503 46.6172 12.323 46.118 12.5763C44.8608 13.2142 42.699 14.52 39.5366 17.1108C34.8101 20.982 36.2551 25.2586 37.0336 26.8315C42.0235 24.3927 45.2547 21.0649 46.647 16.9289C47.3454 14.8516 47.3866 13.0553 47.3271 12.0351H47.3248Z" fill="#141414"/>
<path d="M25.8724 31.9624C24.4755 31.9624 23.0397 31.7828 21.5878 31.3659C17.9284 30.3158 15.927 28.2524 15.8423 28.1649C15.5537 27.8632 15.5308 27.3957 15.7873 27.0664C15.9659 26.8384 17.7567 24.7749 25.806 22.3661C30.3103 21.0189 33.2667 22.4513 34.9544 23.8906C36.7704 25.4405 37.5123 27.3082 37.5421 27.3865C37.6909 27.7665 37.5444 28.1971 37.1986 28.409C34.3224 30.1638 30.2943 31.9647 25.8701 31.9647L25.8724 31.9624ZM17.7269 27.5891C18.5307 28.2132 20.0329 29.1897 22.1328 29.7792C26.3143 30.9491 30.8691 30.1362 35.6826 27.3634C34.8285 25.832 32.1286 22.2233 26.2846 23.9735C22.3756 25.1434 20.0856 26.2074 18.8536 26.8913C18.3635 27.1631 17.9971 27.4003 17.7292 27.5914L17.7269 27.5891Z" fill="#141414"/>
<path d="M2.44111 47.802C2.38386 47.7467 2.35409 47.6776 2.35409 47.5901V41.5886H0.302277C0.217548 41.5886 0.144268 41.561 0.087019 41.5057C0.0297697 41.4505 0 41.3814 0 41.2939V39.9812C0 39.896 0.0297697 39.8223 0.087019 39.7647C0.144268 39.7072 0.217548 39.6772 0.302277 39.6772H6.63177C6.7165 39.6772 6.78978 39.7072 6.84702 39.7647C6.90427 39.8223 6.93404 39.896 6.93404 39.9812V41.2939C6.93404 41.3791 6.90427 41.4505 6.84702 41.5057C6.78978 41.561 6.7165 41.5886 6.63177 41.5886H4.57995V47.5901C4.57995 47.6753 4.55018 47.7467 4.49293 47.802C4.43568 47.8572 4.3624 47.8849 4.27767 47.8849H2.65866C2.57393 47.8849 2.50065 47.8572 2.4434 47.802H2.44111Z" fill="#141414"/>
<path d="M8.04698 47.795C7.98973 47.7375 7.95996 47.6684 7.95996 47.5901V39.9835C7.95996 39.8983 7.98744 39.8246 8.0424 39.767C8.09736 39.7094 8.16606 39.6795 8.25308 39.6795H13.7536C13.8383 39.6795 13.9116 39.7094 13.9689 39.767C14.0261 39.8246 14.0559 39.8983 14.0559 39.9835V41.1442C14.0559 41.2294 14.0261 41.3008 13.9689 41.356C13.9116 41.4113 13.8383 41.4389 13.7536 41.4389H10.0713V42.9266H13.4971C13.5818 42.9266 13.6551 42.9566 13.7124 43.0141C13.7696 43.0717 13.7994 43.1454 13.7994 43.2306V44.2969C13.7994 44.3821 13.7696 44.4558 13.7124 44.5134C13.6551 44.5709 13.5818 44.6009 13.4971 44.6009H10.0713V46.1254H13.8475C13.9322 46.1254 14.0055 46.1553 14.0627 46.2129C14.12 46.2705 14.1498 46.3442 14.1498 46.4294V47.5901C14.1498 47.6753 14.12 47.7467 14.0627 47.8019C14.0055 47.8572 13.9322 47.8848 13.8475 47.8848H8.25308C8.17522 47.8848 8.10652 47.8549 8.04927 47.7973L8.04698 47.795Z" fill="#141414"/>
<path d="M15.5304 47.795C15.4731 47.7375 15.4434 47.6684 15.4434 47.5901V39.9835C15.4434 39.8983 15.4708 39.8246 15.5258 39.767C15.5808 39.7094 15.6495 39.6795 15.7365 39.6795H19.034C20.0439 39.6795 20.8362 39.9098 21.411 40.3704C21.9858 40.831 22.2744 41.508 22.2744 42.397C22.2744 43.2859 21.9858 43.9537 21.411 44.3959C20.8362 44.8381 20.0439 45.0592 19.034 45.0592H17.7059V47.5901C17.7059 47.6684 17.6784 47.7375 17.6234 47.795C17.5685 47.8526 17.4998 47.8825 17.4127 47.8825H15.7342C15.6563 47.8825 15.5876 47.8526 15.5304 47.795ZM18.9745 43.3826C19.2928 43.3826 19.5447 43.2997 19.7256 43.1316C19.9088 42.9635 20.0004 42.7148 20.0004 42.3878C20.0004 42.0838 19.918 41.8374 19.7508 41.6485C19.5836 41.462 19.3249 41.3676 18.9768 41.3676H17.6715V43.3826H18.9768H18.9745Z" fill="#141414"/>
<path d="M23.4425 47.795C23.3852 47.7375 23.3555 47.6684 23.3555 47.5901V39.972C23.3555 39.8868 23.3852 39.8154 23.4425 39.7601C23.4997 39.7049 23.5684 39.6772 23.6463 39.6772H25.2768C25.3615 39.6772 25.4325 39.7049 25.4874 39.7601C25.5424 39.8154 25.5699 39.8845 25.5699 39.972V46.0425H29.0667C29.1514 46.0425 29.2247 46.0725 29.2819 46.13C29.3392 46.1876 29.3689 46.2613 29.3689 46.3465V47.5878C29.3689 47.673 29.3392 47.7444 29.2819 47.7997C29.2247 47.8549 29.1514 47.8826 29.0667 47.8826H23.6463C23.5684 47.8826 23.4997 47.8526 23.4425 47.795Z" fill="#141414"/>
<path d="M31.0249 47.1917C30.3883 46.6528 30.0494 45.8606 30.0105 44.8127C30.0036 44.594 29.999 44.2577 29.999 43.8041C29.999 43.3504 30.0036 43.0118 30.0105 42.7839C30.0425 41.7521 30.3814 40.9576 31.0295 40.398C31.6776 39.8384 32.5455 39.5598 33.6332 39.5598C34.7209 39.5598 35.5774 39.8384 36.2255 40.398C36.8735 40.9576 37.2147 41.7521 37.2445 42.7839C37.2605 43.2375 37.2674 43.5761 37.2674 43.8041C37.2674 44.032 37.2605 44.3752 37.2445 44.8127C37.2056 45.8606 36.8689 46.6528 36.2369 47.1917C35.6026 47.7306 34.7347 48 33.6309 48C32.5272 48 31.657 47.7306 31.0204 47.1917H31.0249ZM34.6042 45.8721C34.8446 45.6257 34.9728 45.248 34.9889 44.7413C35.0049 44.2877 35.0118 43.963 35.0118 43.7695C35.0118 43.5761 35.0049 43.2583 34.9889 42.8207C34.9728 42.3118 34.8446 41.9364 34.6042 41.69C34.3637 41.4436 34.0408 41.3215 33.6378 41.3215C33.2348 41.3215 32.9004 41.4436 32.66 41.69C32.4195 41.9364 32.2913 42.3141 32.2753 42.8207C32.2684 43.0395 32.2638 43.355 32.2638 43.7695C32.2638 44.184 32.2684 44.5157 32.2753 44.7413C32.2913 45.2503 32.4195 45.6257 32.66 45.8721C32.9004 46.1185 33.2279 46.2406 33.6378 46.2406C34.0477 46.2406 34.3637 46.1185 34.6042 45.8721Z" fill="#141414"/>
<path d="M39.3579 47.1732C38.7213 46.6228 38.3824 45.8352 38.3435 44.8104C38.3366 44.5917 38.332 44.237 38.332 43.7442C38.332 43.2514 38.3366 42.8921 38.3435 42.6664C38.3755 41.6831 38.7145 40.9185 39.3625 40.375C40.0106 39.8315 40.8922 39.5598 42.0029 39.5598C42.7494 39.5598 43.3997 39.6818 43.9562 39.9236C44.5127 40.1654 44.934 40.4763 45.2271 40.8563C45.518 41.2363 45.6714 41.6232 45.6874 42.0216C45.6874 42.093 45.6622 42.1529 45.6119 42.2035C45.5615 42.2542 45.5019 42.2795 45.431 42.2795H43.6242C43.5463 42.2795 43.4868 42.2657 43.4433 42.2381C43.3997 42.2104 43.3608 42.169 43.3219 42.116C43.228 41.8972 43.0791 41.7107 42.8731 41.5541C42.667 41.3975 42.3784 41.3192 42.0051 41.3192C41.1029 41.3192 40.638 41.789 40.606 42.7263C40.5991 42.9451 40.5945 43.2813 40.5945 43.735C40.5945 44.1886 40.5991 44.5272 40.606 44.7552C40.638 45.7477 41.1121 46.2429 42.0281 46.2429C42.4792 46.2429 42.8364 46.13 43.0998 45.902C43.3631 45.6763 43.4959 45.3309 43.4959 44.8703V44.6584H42.4586C42.3738 44.6584 42.3006 44.6285 42.2433 44.5709C42.1861 44.5134 42.1563 44.4397 42.1563 44.3545V43.4402C42.1563 43.355 42.1861 43.2813 42.2433 43.2237C42.3006 43.1661 42.3738 43.1362 42.4586 43.1362H45.4195C45.5042 43.1362 45.5775 43.1661 45.6348 43.2237C45.692 43.2813 45.7218 43.355 45.7218 43.4402V44.7989C45.7218 45.4622 45.5683 46.0356 45.2615 46.5169C44.9546 46.9982 44.5218 47.3644 43.9631 47.6177C43.4043 47.871 42.7517 47.9977 42.0051 47.9977C40.8785 47.9977 39.9968 47.7213 39.3602 47.1709L39.3579 47.1732Z" fill="#141414"/>
<path d="M46.2045 47.8066C46.1541 47.7559 46.1289 47.6983 46.1289 47.6361C46.1289 47.5901 46.1335 47.5532 46.1404 47.5302L48.8563 40.0181C48.9341 39.7924 49.0898 39.6772 49.3234 39.6772H51.1417C51.3752 39.6772 51.531 39.7901 51.6088 40.0181L54.3247 47.5302C54.3316 47.5532 54.3362 47.5878 54.3362 47.6361C54.3362 47.6983 54.311 47.7559 54.2606 47.8066C54.2102 47.8572 54.153 47.8826 54.0911 47.8826H52.5752C52.3897 47.8826 52.2569 47.7974 52.179 47.6246L51.76 46.487H48.7074L48.2884 47.6246C48.2105 47.7974 48.0777 47.8826 47.8922 47.8826H46.3762C46.3144 47.8826 46.2571 47.8572 46.2068 47.8066H46.2045ZM49.1929 44.7298H51.2676L50.2303 41.7406L49.1929 44.7298Z" fill="#141414"/>
<path d="M55.3077 47.795C55.2505 47.7375 55.2207 47.6684 55.2207 47.5901V39.9835C55.2207 39.8983 55.2482 39.8246 55.3031 39.767C55.3581 39.7094 55.4268 39.6795 55.5138 39.6795H58.7198C59.7457 39.6795 60.5472 39.9144 61.1265 40.3819C61.7059 40.8517 61.9944 41.5103 61.9944 42.3624C61.9944 42.9105 61.8685 43.3734 61.6166 43.758C61.3647 44.1403 61.0166 44.4374 60.5724 44.6492L62.1456 47.5095C62.1685 47.5555 62.1799 47.5993 62.1799 47.6384C62.1799 47.7006 62.157 47.7582 62.1089 47.8089C62.0631 47.8595 62.0036 47.8848 61.9349 47.8848H60.2907C60.0663 47.8848 59.906 47.7789 59.8121 47.5693L58.5297 45.0269H57.4099V47.5947C57.4099 47.6799 57.3802 47.7513 57.3229 47.8065C57.2657 47.8618 57.1924 47.8895 57.1076 47.8895H55.5115C55.4337 47.8895 55.365 47.8595 55.3077 47.8019V47.795ZM58.706 43.2997C59.0404 43.2997 59.2946 43.2168 59.4686 43.0487C59.6426 42.8806 59.7297 42.648 59.7297 42.3509C59.7297 42.0538 59.6426 41.8166 59.4686 41.637C59.2946 41.4574 59.0381 41.3676 58.706 41.3676H57.4122V43.302H58.706V43.2997Z" fill="#141414"/>
<path d="M63.4073 47.795C63.3501 47.7375 63.3203 47.6684 63.3203 47.5901V39.9835C63.3203 39.8983 63.3478 39.8246 63.4027 39.767C63.4577 39.7094 63.5264 39.6795 63.6134 39.6795H66.6774C67.827 39.6795 68.7201 39.9559 69.359 40.5063C69.9956 41.0567 70.3299 41.8489 70.362 42.8806C70.3689 43.1063 70.3734 43.4079 70.3734 43.7833C70.3734 44.1587 70.3689 44.4558 70.362 44.6746C70.2841 46.8163 69.075 47.8872 66.737 47.8872H63.6134C63.5356 47.8872 63.4669 47.8572 63.4096 47.7996L63.4073 47.795ZM66.6774 46.1254C67.1675 46.1254 67.5293 46.008 67.7606 45.7731C67.9941 45.5382 68.1178 45.1628 68.1338 44.6469C68.1499 44.4212 68.1567 44.1265 68.1567 43.7672C68.1567 43.408 68.1499 43.1178 68.1338 42.899C68.1178 42.3993 67.985 42.0308 67.7308 41.7913C67.4789 41.5541 67.1079 41.4343 66.6179 41.4343H65.5095V46.1231H66.6751L66.6774 46.1254Z" fill="#141414"/>
<path d="M71.7862 47.795C71.729 47.7375 71.6992 47.6684 71.6992 47.5901V39.9835C71.6992 39.8983 71.7267 39.8246 71.7817 39.767C71.8366 39.7094 71.9053 39.6795 71.9923 39.6795H77.4929C77.5776 39.6795 77.6509 39.7094 77.7081 39.767C77.7654 39.8246 77.7951 39.8983 77.7951 39.9835V41.1442C77.7951 41.2294 77.7654 41.3008 77.7081 41.356C77.6509 41.4113 77.5776 41.4389 77.4929 41.4389H73.8106V42.9266H77.2364C77.3211 42.9266 77.3944 42.9566 77.4516 43.0141C77.5089 43.0717 77.5387 43.1454 77.5387 43.2306V44.2969C77.5387 44.3821 77.5089 44.4558 77.4516 44.5134C77.3944 44.5709 77.3211 44.6009 77.2364 44.6009H73.8106V46.1254H77.5867C77.6715 46.1254 77.7448 46.1553 77.802 46.2129C77.8592 46.2705 77.889 46.3442 77.889 46.4294V47.5901C77.889 47.6753 77.8592 47.7467 77.802 47.8019C77.7448 47.8572 77.6715 47.8848 77.5867 47.8848H71.9923C71.9145 47.8848 71.8458 47.8549 71.7885 47.7973L71.7862 47.795Z" fill="#141414"/>
<path d="M79.2696 47.795C79.2124 47.7375 79.1826 47.6684 79.1826 47.5901V39.9835C79.1826 39.8983 79.2101 39.8246 79.2651 39.767C79.32 39.7094 79.3887 39.6795 79.4757 39.6795H80.7925C80.9711 39.6795 81.1039 39.7532 81.1886 39.9029L83.9389 44.2739V39.9835C83.9389 39.8983 83.9664 39.8246 84.0213 39.767C84.0763 39.7094 84.145 39.6795 84.232 39.6795H85.7113C85.7961 39.6795 85.8671 39.7094 85.922 39.767C85.977 39.8246 86.0045 39.8983 86.0045 39.9835V47.5786C86.0045 47.6638 85.977 47.7375 85.922 47.795C85.8671 47.8526 85.7984 47.8825 85.7113 47.8825H84.3946C84.216 47.8825 84.0832 47.8089 83.9984 47.6592L81.2596 43.4632V47.5878C81.2596 47.673 81.2299 47.7444 81.1726 47.7996C81.1154 47.8549 81.0421 47.8825 80.9573 47.8825H79.478C79.4002 47.8825 79.3315 47.8526 79.2742 47.795H79.2696Z" fill="#141414"/>
</g>
<defs>
<clipPath id="clip0_117_823">
<rect width="86" height="48" fill="white"/>
</clipPath>
</defs>
</svg>
