<svg width="247" height="138" viewBox="0 0 247 138" fill="none" xmlns="http://www.w3.org/2000/svg">
<g clip-path="url(#clip0_117_1155)">
<path d="M239.101 101.652C229.558 101.652 208.853 101.414 186.248 99.6727C144.576 96.4549 116.584 89.8936 103.055 80.1675C101.977 79.3928 101.733 77.8899 102.496 76.804C103.266 75.7182 104.759 75.4732 105.837 76.2413C134.027 96.5145 226.25 96.9052 242.205 96.8191V75.4799L122.135 5.19208L4.79465 73.2089V99.2093C4.79465 100.54 3.72259 101.619 2.40061 101.619C1.07863 101.619 0 100.54 0 99.2093V71.8119C0 70.9511 0.460391 70.1566 1.19702 69.7263L120.945 0.3257C121.688 -0.10466 122.602 -0.10466 123.345 0.3257L245.81 72.0105C246.546 72.4408 247 73.2354 247 74.0961V99.2093C247 100.527 245.954 101.599 244.645 101.619C244.573 101.619 242.574 101.652 239.101 101.652Z" fill="white"/>
<path d="M105.377 82.6755C104.607 82.6755 103.857 82.2981 103.397 81.6228C103.259 81.4242 100.049 76.6306 99.3259 69.778C98.655 63.4152 100.056 54.0334 110.52 45.446C129.218 30.112 136.986 29.1718 137.815 29.1122C138.998 29.0328 140.077 29.8471 140.32 31.019C140.393 31.3567 142.024 39.4806 138.591 49.9284C135.453 59.4625 127.324 72.8368 106.363 82.4504C106.041 82.5961 105.706 82.6689 105.37 82.6689L105.377 82.6755ZM135.92 34.601C135.039 34.932 133.888 35.4286 132.454 36.1569C128.844 37.9909 122.635 41.7449 113.552 49.1935C99.977 60.3233 104.127 72.6183 106.363 77.1404C120.695 70.1289 129.975 60.5616 133.974 48.6704C135.98 42.6984 136.098 37.534 135.927 34.601H135.92Z" fill="white"/>
<path d="M74.3073 91.8918C70.2953 91.8918 66.1715 91.3754 62.0017 90.177C51.4916 87.1579 45.7433 81.2255 45.5 80.9739C44.6713 80.1066 44.6055 78.7625 45.3421 77.8158C45.8551 77.1603 50.9984 71.2279 74.1166 64.3024C87.0536 60.4292 95.5445 64.5474 100.392 68.6855C105.607 73.1414 107.738 78.511 107.824 78.7361C108.251 79.8285 107.83 81.0666 106.837 81.6758C98.5765 86.7209 87.0075 91.8985 74.3007 91.8985L74.3073 91.8918ZM50.9129 79.3187C53.2214 81.113 57.5359 83.9202 63.567 85.6152C75.5767 88.9786 88.6584 86.6415 102.483 78.6699C100.03 74.2669 92.2757 63.8919 75.4912 68.9238C64.2642 72.2873 57.6872 75.3461 54.1488 77.3126C52.7413 78.0938 51.6889 78.7758 50.9194 79.3253L50.9129 79.3187Z" fill="white"/>
<path d="M7.0111 137.431C6.84668 137.272 6.76118 137.073 6.76118 136.821V119.567H0.868167C0.624817 119.567 0.414352 119.488 0.249927 119.329C0.0855013 119.17 0 118.971 0 118.72V114.946C0 114.701 0.0855013 114.489 0.249927 114.324C0.414352 114.158 0.624817 114.072 0.868167 114.072H19.0471C19.2904 114.072 19.5009 114.158 19.6653 114.324C19.8297 114.489 19.9152 114.701 19.9152 114.946V118.72C19.9152 118.965 19.8297 119.17 19.6653 119.329C19.5009 119.488 19.2904 119.567 19.0471 119.567H13.154V136.821C13.154 137.066 13.0685 137.272 12.9041 137.431C12.7397 137.59 12.5292 137.669 12.2859 137.669H7.63592C7.39257 137.669 7.18211 137.59 7.01768 137.431H7.0111Z" fill="white"/>
<path d="M23.1113 137.411C22.9468 137.245 22.8613 137.047 22.8613 136.821V114.953C22.8613 114.708 22.9403 114.496 23.0981 114.33C23.2559 114.165 23.4533 114.079 23.7032 114.079H39.5012C39.7445 114.079 39.955 114.165 40.1194 114.33C40.2839 114.496 40.3694 114.708 40.3694 114.953V118.29C40.3694 118.534 40.2839 118.74 40.1194 118.899C39.955 119.058 39.7445 119.137 39.5012 119.137H28.9253V123.414H38.7646C39.0079 123.414 39.2184 123.5 39.3828 123.666C39.5472 123.831 39.6327 124.043 39.6327 124.288V127.354C39.6327 127.599 39.5472 127.81 39.3828 127.976C39.2184 128.141 39.0079 128.228 38.7646 128.228H28.9253V132.611H39.7709C40.0142 132.611 40.2247 132.697 40.3891 132.862C40.5535 133.028 40.639 133.24 40.639 133.485V136.821C40.639 137.066 40.5535 137.272 40.3891 137.431C40.2247 137.59 40.0142 137.669 39.7709 137.669H23.7032C23.4796 137.669 23.2823 137.583 23.1178 137.417L23.1113 137.411Z" fill="white"/>
<path d="M44.6054 137.411C44.441 137.245 44.3555 137.047 44.3555 136.821V114.953C44.3555 114.708 44.4344 114.496 44.5922 114.33C44.7501 114.165 44.9474 114.079 45.1973 114.079H54.6682C57.5687 114.079 59.8443 114.741 61.4952 116.065C63.146 117.389 63.9747 119.336 63.9747 121.891C63.9747 124.447 63.146 126.367 61.4952 127.638C59.8443 128.909 57.5687 129.545 54.6682 129.545H50.8536V136.821C50.8536 137.047 50.7746 137.245 50.6168 137.411C50.4589 137.576 50.2616 137.662 50.0117 137.662H45.1907C44.9671 137.662 44.7698 137.576 44.6054 137.411ZM54.4972 124.725C55.4114 124.725 56.1349 124.487 56.6545 124.003C57.1807 123.52 57.4437 122.805 57.4437 121.865C57.4437 120.991 57.207 120.282 56.7268 119.739C56.2467 119.203 55.5035 118.932 54.5038 118.932H50.7549V124.725H54.5038H54.4972Z" fill="white"/>
<path d="M67.329 137.411C67.1646 137.245 67.0791 137.047 67.0791 136.821V114.919C67.0791 114.674 67.1646 114.469 67.329 114.31C67.4935 114.151 67.6908 114.072 67.9144 114.072H72.5972C72.8406 114.072 73.0445 114.151 73.2023 114.31C73.3602 114.469 73.4391 114.668 73.4391 114.919V132.372H83.4822C83.7255 132.372 83.936 132.458 84.1004 132.624C84.2649 132.789 84.3504 133.001 84.3504 133.246V136.815C84.3504 137.06 84.2649 137.265 84.1004 137.424C83.936 137.583 83.7255 137.662 83.4822 137.662H67.9144C67.6908 137.662 67.4935 137.576 67.329 137.411Z" fill="white"/>
<path d="M89.1057 135.676C87.2773 134.127 86.3039 131.849 86.1921 128.837C86.1723 128.208 86.1592 127.241 86.1592 125.937C86.1592 124.632 86.1723 123.659 86.1921 123.004C86.2841 120.037 87.2575 117.753 89.1188 116.144C90.9801 114.535 93.4728 113.734 96.5969 113.734C99.721 113.734 102.181 114.535 104.042 116.144C105.903 117.753 106.883 120.037 106.969 123.004C107.015 124.308 107.035 125.281 107.035 125.937C107.035 126.592 107.015 127.579 106.969 128.837C106.857 131.849 105.89 134.127 104.075 135.676C102.253 137.225 99.7605 138 96.5903 138C93.4202 138 90.9209 137.225 89.0925 135.676H89.1057ZM99.3856 131.882C100.076 131.174 100.444 130.088 100.491 128.631C100.537 127.327 100.556 126.394 100.556 125.837C100.556 125.281 100.537 124.368 100.491 123.11C100.444 121.646 100.076 120.567 99.3856 119.859C98.695 119.15 97.7676 118.799 96.6101 118.799C95.4525 118.799 94.4923 119.15 93.8017 119.859C93.1111 120.567 92.7428 121.653 92.6967 123.11C92.677 123.739 92.6639 124.646 92.6639 125.837C92.6639 127.029 92.677 127.983 92.6967 128.631C92.7428 130.095 93.1111 131.174 93.8017 131.882C94.4923 132.591 95.4328 132.942 96.6101 132.942C97.7873 132.942 98.695 132.591 99.3856 131.882Z" fill="white"/>
<path d="M113.039 135.623C111.211 134.041 110.237 131.776 110.126 128.83C110.106 128.201 110.093 127.181 110.093 125.765C110.093 124.348 110.106 123.315 110.126 122.666C110.218 119.839 111.191 117.641 113.052 116.078C114.914 114.516 117.446 113.734 120.636 113.734C122.78 113.734 124.648 114.085 126.246 114.78C127.844 115.476 129.054 116.369 129.896 117.462C130.731 118.554 131.172 119.667 131.218 120.812C131.218 121.017 131.146 121.189 131.001 121.335C130.856 121.481 130.685 121.554 130.482 121.554H125.292C125.069 121.554 124.898 121.514 124.773 121.434C124.648 121.355 124.536 121.236 124.424 121.084C124.154 120.455 123.727 119.918 123.135 119.468C122.543 119.018 121.714 118.793 120.642 118.793C118.051 118.793 116.716 120.143 116.624 122.838C116.604 123.467 116.591 124.434 116.591 125.738C116.591 127.042 116.604 128.016 116.624 128.671C116.716 131.525 118.077 132.948 120.708 132.948C122.004 132.948 123.03 132.624 123.786 131.968C124.542 131.319 124.924 130.326 124.924 129.002V128.393H121.945C121.701 128.393 121.491 128.307 121.326 128.141C121.162 127.976 121.076 127.764 121.076 127.519V124.891C121.076 124.646 121.162 124.434 121.326 124.268C121.491 124.103 121.701 124.017 121.945 124.017H130.449C130.692 124.017 130.902 124.103 131.067 124.268C131.231 124.434 131.317 124.646 131.317 124.891V128.797C131.317 130.704 130.876 132.352 129.995 133.736C129.114 135.12 127.87 136.173 126.266 136.901C124.661 137.629 122.786 137.993 120.642 137.993C117.406 137.993 114.874 137.199 113.046 135.616L113.039 135.623Z" fill="white"/>
<path d="M132.704 137.444C132.56 137.298 132.487 137.133 132.487 136.954C132.487 136.821 132.5 136.716 132.52 136.649L140.321 115.052C140.544 114.403 140.991 114.072 141.662 114.072H146.884C147.555 114.072 148.002 114.396 148.226 115.052L156.026 136.649C156.046 136.716 156.059 136.815 156.059 136.954C156.059 137.133 155.987 137.298 155.842 137.444C155.698 137.589 155.533 137.662 155.356 137.662H151.002C150.469 137.662 150.087 137.417 149.864 136.921L148.66 133.65H139.893L138.689 136.921C138.466 137.417 138.084 137.662 137.552 137.662H133.198C133.02 137.662 132.856 137.589 132.711 137.444H132.704ZM141.287 128.598H147.246L144.267 120.004L141.287 128.598Z" fill="white"/>
<path d="M158.849 137.411C158.684 137.245 158.599 137.047 158.599 136.821V114.953C158.599 114.708 158.678 114.496 158.835 114.33C158.993 114.165 159.191 114.079 159.44 114.079H168.648C171.595 114.079 173.897 114.754 175.561 116.098C177.225 117.449 178.053 119.342 178.053 121.792C178.053 123.368 177.692 124.699 176.968 125.804C176.245 126.903 175.245 127.757 173.969 128.367L178.488 136.59C178.553 136.722 178.586 136.848 178.586 136.961C178.586 137.139 178.52 137.305 178.382 137.45C178.251 137.596 178.08 137.669 177.882 137.669H173.16C172.516 137.669 172.055 137.364 171.786 136.762L168.102 129.452H164.886V136.835C164.886 137.08 164.801 137.285 164.636 137.444C164.472 137.603 164.261 137.682 164.018 137.682H159.434C159.21 137.682 159.013 137.596 158.849 137.431V137.411ZM168.609 124.487C169.569 124.487 170.299 124.248 170.799 123.765C171.299 123.282 171.549 122.613 171.549 121.759C171.549 120.905 171.299 120.223 170.799 119.706C170.299 119.19 169.563 118.932 168.609 118.932H164.893V124.493H168.609V124.487Z" fill="white"/>
<path d="M182.111 137.411C181.947 137.245 181.861 137.047 181.861 136.821V114.953C181.861 114.708 181.94 114.496 182.098 114.33C182.256 114.165 182.453 114.079 182.703 114.079H191.503C194.805 114.079 197.37 114.873 199.205 116.456C201.033 118.038 201.994 120.316 202.086 123.282C202.105 123.931 202.119 124.798 202.119 125.877C202.119 126.956 202.105 127.81 202.086 128.439C201.862 134.597 198.389 137.676 191.674 137.676H182.703C182.48 137.676 182.282 137.59 182.118 137.424L182.111 137.411ZM191.503 132.611C192.911 132.611 193.95 132.273 194.614 131.598C195.285 130.922 195.64 129.843 195.686 128.36C195.732 127.711 195.752 126.864 195.752 125.831C195.752 124.798 195.732 123.964 195.686 123.335C195.64 121.898 195.259 120.839 194.529 120.15C193.805 119.468 192.74 119.124 191.332 119.124H188.149V132.604H191.497L191.503 132.611Z" fill="white"/>
<path d="M206.177 137.411C206.012 137.245 205.927 137.047 205.927 136.821V114.953C205.927 114.708 206.006 114.496 206.164 114.33C206.321 114.165 206.519 114.079 206.769 114.079H222.567C222.81 114.079 223.02 114.165 223.185 114.33C223.349 114.496 223.435 114.708 223.435 114.953V118.29C223.435 118.534 223.349 118.74 223.185 118.899C223.02 119.058 222.81 119.137 222.567 119.137H211.991V123.414H221.83C222.073 123.414 222.284 123.5 222.448 123.666C222.613 123.831 222.698 124.043 222.698 124.288V127.354C222.698 127.599 222.613 127.81 222.448 127.976C222.284 128.141 222.073 128.228 221.83 128.228H211.991V132.611H222.836C223.08 132.611 223.29 132.697 223.455 132.862C223.619 133.028 223.704 133.24 223.704 133.485V136.821C223.704 137.066 223.619 137.272 223.455 137.431C223.29 137.59 223.08 137.669 222.836 137.669H206.769C206.545 137.669 206.348 137.583 206.183 137.417L206.177 137.411Z" fill="white"/>
<path d="M227.67 137.411C227.505 137.245 227.42 137.047 227.42 136.821V114.953C227.42 114.708 227.499 114.496 227.657 114.33C227.815 114.165 228.012 114.079 228.262 114.079H232.044C232.557 114.079 232.938 114.29 233.181 114.721L241.08 127.287V114.953C241.08 114.708 241.159 114.496 241.317 114.33C241.475 114.165 241.672 114.079 241.922 114.079H246.171C246.414 114.079 246.618 114.165 246.776 114.33C246.934 114.496 247.013 114.708 247.013 114.953V136.788C247.013 137.033 246.934 137.245 246.776 137.411C246.618 137.576 246.421 137.662 246.171 137.662H242.389C241.876 137.662 241.495 137.45 241.251 137.02L233.385 124.957V136.815C233.385 137.06 233.3 137.265 233.135 137.424C232.971 137.583 232.76 137.662 232.517 137.662H228.268C228.045 137.662 227.847 137.576 227.683 137.411H227.67Z" fill="white"/>
</g>
<defs>
<clipPath id="clip0_117_1155">
<rect width="247" height="138" fill="white"/>
</clipPath>
</defs>
</svg>
