<svg width="24" height="24" viewBox="0 0 24 24" fill="none" xmlns="http://www.w3.org/2000/svg">
<path d="M8.11008 1.07512L1.07812 8.83809V22.9219H22.9219V8.85205L16.7028 1.07812C13.8387 1.06237 10.9741 1.10118 8.11013 1.07512H8.11008ZM9.1972 1.92187H12.5472L17.8723 8.57812H15.1879L9.1972 1.92187ZM13.6278 1.92187H16.2972L21.6223 8.57812H18.9527L13.6278 1.92187ZM8.25 2.1307L14.5781 9.16185V22.0781H1.92188V9.16185L8.25 2.1307ZM10.4379 7.03673C9.12412 7.09359 8.08997 7.66082 7.31545 8.41059C6.42014 9.2773 5.88511 10.396 5.7292 11.1895C5.38987 12.9165 6.18895 14.0893 7.18561 14.4917C7.18655 14.4822 7.18791 14.4834 7.1857 14.4804C6.83381 12.6595 7.37855 10.9221 8.53195 9.7716C7.66078 11.1107 7.54786 13.0919 8.07727 14.6444C8.30156 14.631 8.52143 14.5761 8.72573 14.4826C9.2093 14.261 9.64519 13.8104 9.91702 13.0515C10.2066 12.243 9.95841 10.9401 9.8588 9.70227C9.80902 9.08338 9.79955 8.47659 9.94748 7.93495C10.0386 7.60152 10.1972 7.29276 10.4379 7.03673ZM15.4219 9.42187H18.3281V14.5781H15.4219V9.42187ZM19.1719 9.42187H22.0781V14.5781H19.1719V9.42187ZM3.66441 11.4146C2.92153 12.2492 2.64417 13.2162 2.62903 14.139C2.61122 15.2262 2.9723 16.2481 3.36394 16.8315C4.20923 18.0906 5.41345 18.3174 6.26742 17.9706C4.93177 17.0588 4.1993 15.6505 4.20108 14.2277C4.48922 15.5902 5.6348 16.8813 6.91589 17.5202C7.04665 17.3738 7.14879 17.2041 7.21702 17.0201C7.37677 16.59 7.36889 16.0493 7.06941 15.4152C6.75323 14.7458 5.79431 14.0901 4.96289 13.3824C4.54716 13.0285 4.1633 12.6561 3.91636 12.2234C3.77513 11.9759 3.68447 11.7032 3.66441 11.4146ZM13.799 13.1671C13.6373 13.4072 13.4228 13.5987 13.1765 13.7425C12.7464 13.9938 12.2279 14.124 11.691 14.2225C10.6171 14.4197 9.45933 14.5078 8.85094 14.9292C8.27461 15.3286 7.99659 15.7933 7.91995 16.2456C7.88717 16.4392 7.89095 16.6371 7.93111 16.8292C9.36005 16.9166 10.9973 16.3713 11.928 15.3354C11.2185 16.5684 9.88027 17.4218 8.26805 17.5434C8.8342 18.2709 9.98977 18.6769 11.3511 18.0092C11.9818 17.6999 12.8059 16.9954 13.3339 16.0451C13.7821 15.2383 14.0252 14.2614 13.799 13.1671ZM15.4219 15.4219H18.3281V22.0781H15.4219V15.4219ZM19.1719 15.4219H22.0781V22.0781H19.1719V15.4219ZM7.12345 18.1697C6.96886 19.2502 7.36392 20.28 7.36416 21.0372L8.20791 21.0369C8.20763 20.0382 7.84791 19.0634 7.95867 18.2893C7.75486 17.9996 7.52597 17.9566 7.12345 18.1698V18.1697Z" fill="#141414"/>
</svg>
