<svg width="25" height="24" viewBox="0 0 25 24" fill="none" xmlns="http://www.w3.org/2000/svg">
<g clip-path="url(#clip0_45_387)">
<path d="M18.8751 0H6.12512C3.01852 0 0.500122 2.5184 0.500122 5.625V18.375C0.500122 21.4816 3.01852 24 6.12512 24H18.8751C21.9817 24 24.5001 21.4816 24.5001 18.375V5.625C24.5001 2.5184 21.9817 0 18.8751 0Z" fill="url(#paint0_radial_45_387)"/>
<path d="M18.8751 0H6.12512C3.01852 0 0.500122 2.5184 0.500122 5.625V18.375C0.500122 21.4816 3.01852 24 6.12512 24H18.8751C21.9817 24 24.5001 21.4816 24.5001 18.375V5.625C24.5001 2.5184 21.9817 0 18.8751 0Z" fill="url(#paint1_radial_45_387)"/>
<path d="M12.501 2.625C9.9549 2.625 9.63531 2.63616 8.63537 2.68163C7.63731 2.72738 6.95603 2.88534 6.35997 3.11719C5.74328 3.35662 5.22025 3.67697 4.69918 4.19822C4.17765 4.71937 3.85731 5.24241 3.61712 5.85881C3.38462 6.45506 3.22647 7.13662 3.18156 8.13422C3.13684 9.13425 3.12512 9.45394 3.12512 12.0001C3.12512 14.5463 3.13637 14.8648 3.18175 15.8647C3.22768 16.8628 3.38565 17.5441 3.61731 18.1402C3.85693 18.7568 4.17728 19.2799 4.69853 19.8009C5.2195 20.3225 5.74253 20.6436 6.35875 20.883C6.95528 21.1148 7.63665 21.2728 8.63453 21.3186C9.63456 21.364 9.95387 21.3752 12.4998 21.3752C15.0462 21.3752 15.3647 21.364 16.3647 21.3186C17.3627 21.2728 18.0448 21.1148 18.6413 20.883C19.2577 20.6436 19.78 20.3225 20.3009 19.8009C20.8224 19.2799 21.1427 18.7568 21.3829 18.1404C21.6134 17.5441 21.7716 16.8626 21.8185 15.8649C21.8634 14.865 21.8751 14.5463 21.8751 12.0001C21.8751 9.45394 21.8634 9.13444 21.8185 8.13441C21.7716 7.13634 21.6134 6.45516 21.3829 5.85909C21.1427 5.24241 20.8224 4.71937 20.3009 4.19822C19.7794 3.67678 19.2579 3.35644 18.6407 3.11728C18.0431 2.88534 17.3614 2.72728 16.3634 2.68163C15.3633 2.63616 15.045 2.625 12.4981 2.625H12.501ZM11.6599 4.31447C11.9096 4.31409 12.1881 4.31447 12.501 4.31447C15.0042 4.31447 15.3008 4.32347 16.2893 4.36838C17.2034 4.41019 17.6995 4.56291 18.03 4.69125C18.4675 4.86112 18.7794 5.06428 19.1073 5.3925C19.4355 5.72062 19.6385 6.03309 19.8089 6.47062C19.9372 6.80062 20.0901 7.29675 20.1317 8.21081C20.1767 9.19913 20.1864 9.49594 20.1864 11.9979C20.1864 14.4999 20.1767 14.7968 20.1317 15.7851C20.0899 16.6991 19.9372 17.1952 19.8089 17.5253C19.639 17.9629 19.4355 18.2744 19.1073 18.6023C18.7792 18.9305 18.4677 19.1335 18.03 19.3035C17.6999 19.4324 17.2034 19.5848 16.2893 19.6266C15.301 19.6715 15.0042 19.6812 12.501 19.6812C9.99765 19.6812 9.70093 19.6715 8.71272 19.6266C7.79865 19.5844 7.30253 19.4317 6.97178 19.3033C6.53434 19.1333 6.22178 18.9303 5.89365 18.6022C5.56553 18.274 5.36247 17.9623 5.19212 17.5246C5.06378 17.1945 4.91087 16.6984 4.86925 15.7843C4.82434 14.796 4.81534 14.4992 4.81534 11.9956C4.81534 9.492 4.82434 9.19678 4.86925 8.20847C4.91106 7.29441 5.06378 6.79828 5.19212 6.46781C5.36209 6.03028 5.56553 5.71781 5.89375 5.38969C6.22197 5.06156 6.53434 4.85841 6.97187 4.68816C7.30234 4.55925 7.79865 4.40691 8.71272 4.36491C9.57756 4.32581 9.91272 4.31409 11.6599 4.31212V4.31447ZM17.5053 5.87109C16.8842 5.87109 16.3803 6.37453 16.3803 6.99572C16.3803 7.61681 16.8842 8.12072 17.5053 8.12072C18.1264 8.12072 18.6303 7.61681 18.6303 6.99572C18.6303 6.37463 18.1264 5.87072 17.5053 5.87072V5.87109ZM12.501 7.18556C9.84222 7.18556 7.68653 9.34125 7.68653 12.0001C7.68653 14.6589 9.84222 16.8136 12.501 16.8136C15.1598 16.8136 17.3147 14.6589 17.3147 12.0001C17.3147 9.34134 15.1596 7.18556 12.5008 7.18556H12.501ZM12.501 8.87503C14.2268 8.87503 15.626 10.2741 15.626 12.0001C15.626 13.7259 14.2268 15.1252 12.501 15.1252C10.7751 15.1252 9.376 13.7259 9.376 12.0001C9.376 10.2741 10.775 8.87503 12.501 8.87503Z" fill="white"/>
</g>
<defs>
<radialGradient id="paint0_radial_45_387" cx="0" cy="0" r="1" gradientUnits="userSpaceOnUse" gradientTransform="translate(6.87512 25.8485) rotate(-90) scale(23.7858 22.1227)">
<stop stop-color="#FFDD55"/>
<stop offset="0.1" stop-color="#FFDD55"/>
<stop offset="0.5" stop-color="#FF543E"/>
<stop offset="1" stop-color="#C837AB"/>
</radialGradient>
<radialGradient id="paint1_radial_45_387" cx="0" cy="0" r="1" gradientUnits="userSpaceOnUse" gradientTransform="translate(-3.51997 1.72884) rotate(78.681) scale(10.6324 43.827)">
<stop stop-color="#3771C8"/>
<stop offset="0.128" stop-color="#3771C8"/>
<stop offset="1" stop-color="#6600FF" stop-opacity="0"/>
</radialGradient>
<clipPath id="clip0_45_387">
<rect width="24" height="24" fill="white" transform="translate(0.500122)"/>
</clipPath>
</defs>
</svg>
