<svg width="24" height="25" viewBox="0 0 24 25" fill="none" xmlns="http://www.w3.org/2000/svg">
<path d="M13.5253 4.80593C13.5508 4.71075 13.5947 4.62151 13.6547 4.54333C13.7147 4.46514 13.7894 4.39954 13.8748 4.35026C13.9601 4.30098 14.0543 4.269 14.152 4.25614C14.2496 4.24328 14.3489 4.24979 14.4441 4.27531C15.8344 4.63807 17.103 5.36491 18.119 6.38096C19.1351 7.39702 19.8619 8.66556 20.2247 10.0559C20.2502 10.1511 20.2567 10.2504 20.2439 10.348C20.231 10.4457 20.199 10.5399 20.1497 10.6252C20.1005 10.7106 20.0349 10.7853 19.9567 10.8453C19.8785 10.9053 19.7893 10.9492 19.6941 10.9747C19.6307 10.9914 19.5655 10.9999 19.5 11C19.3347 11 19.1741 10.9454 19.043 10.8447C18.912 10.744 18.8179 10.6028 18.7753 10.4431C18.4795 9.30811 17.8863 8.27253 17.0569 7.44314C16.2275 6.61375 15.1919 6.02055 14.0569 5.72468C13.9616 5.69932 13.8723 5.65543 13.794 5.59552C13.7157 5.5356 13.65 5.46084 13.6006 5.37551C13.5513 5.29018 13.5192 5.19595 13.5063 5.09822C13.4933 5.00048 13.4998 4.90116 13.5253 4.80593ZM13.3069 8.72468C14.5997 9.06968 15.4303 9.90031 15.7753 11.1931C15.8179 11.3528 15.912 11.494 16.043 11.5947C16.1741 11.6954 16.3347 11.75 16.5 11.75C16.5655 11.7499 16.6307 11.7414 16.6941 11.7247C16.7893 11.6992 16.8785 11.6553 16.9567 11.5953C17.0349 11.5353 17.1005 11.4606 17.1497 11.3752C17.199 11.2899 17.231 11.1957 17.2439 11.098C17.2567 11.0004 17.2502 10.9011 17.2247 10.8059C16.7447 9.00968 15.4903 7.75531 13.6941 7.27531C13.5019 7.22396 13.2971 7.25107 13.1249 7.35067C12.9527 7.45027 12.8271 7.6142 12.7758 7.8064C12.7244 7.9986 12.7516 8.20332 12.8512 8.37553C12.9508 8.54775 13.1147 8.67334 13.3069 8.72468ZM20.9888 17.6637C20.8216 18.9341 20.1977 20.1001 19.2337 20.9441C18.2696 21.7881 17.0313 22.2523 15.75 22.25C8.30626 22.25 2.25001 16.1937 2.25001 8.74999C2.24771 7.4687 2.7119 6.23039 3.55588 5.26633C4.39986 4.30228 5.56592 3.67841 6.83626 3.51124C7.15749 3.47202 7.4828 3.53774 7.76362 3.69859C8.04444 3.85945 8.2657 4.1068 8.39438 4.40374L10.3744 8.82406V8.83531C10.4729 9.06261 10.5136 9.31077 10.4928 9.55763C10.472 9.80449 10.3904 10.0424 10.2553 10.25C10.2384 10.2753 10.2206 10.2987 10.2019 10.3222L8.25001 12.6359C8.9522 14.0628 10.4447 15.5422 11.8903 16.2462L14.1722 14.3047C14.1946 14.2858 14.2181 14.2683 14.2425 14.2522C14.45 14.1138 14.6887 14.0293 14.937 14.0064C15.1853 13.9835 15.4354 14.0229 15.6647 14.1209L15.6769 14.1266L20.0934 16.1056C20.3909 16.2338 20.6389 16.4549 20.8003 16.7358C20.9616 17.0166 21.0278 17.3422 20.9888 17.6637ZM19.5 17.4762H19.4897L15.0834 15.5028L12.8006 17.4444C12.7785 17.4632 12.7554 17.4807 12.7313 17.4969C12.5154 17.6409 12.2659 17.7264 12.0071 17.7452C11.7483 17.7639 11.489 17.7152 11.2547 17.6037C9.49876 16.7553 7.74845 15.0181 6.89907 13.2809C6.7866 13.0483 6.73613 12.7906 6.75255 12.5327C6.76898 12.2748 6.85174 12.0255 6.99282 11.8091C7.00868 11.7836 7.02655 11.7595 7.04626 11.7369L9.00001 9.42031L7.03126 5.01406C7.03088 5.01032 7.03088 5.00655 7.03126 5.00281C6.12212 5.1214 5.28739 5.56733 4.68339 6.2571C4.0794 6.94687 3.74755 7.83316 3.75001 8.74999C3.75348 11.9315 5.01888 14.9818 7.26856 17.2314C9.51825 19.4811 12.5685 20.7465 15.75 20.75C16.6663 20.7531 17.5523 20.4225 18.2425 19.8198C18.9327 19.2171 19.3797 18.3837 19.5 17.4753V17.4762Z" fill="#8C2B02"/>
</svg>
