<svg width="25" height="24" viewBox="0 0 25 24" fill="none" xmlns="http://www.w3.org/2000/svg">
<g clip-path="url(#clip0_45_399)">
<path d="M12.5001 0C9.31825 0 6.26387 1.26506 4.01575 3.51469C1.76532 5.76522 0.500766 8.81734 0.500122 12C0.500122 15.1813 1.76575 18.2357 4.01575 20.4853C6.26387 22.7349 9.31825 24 12.5001 24C15.682 24 18.7364 22.7349 20.9845 20.4853C23.2345 18.2357 24.5001 15.1813 24.5001 12C24.5001 8.81869 23.2345 5.76431 20.9845 3.51469C18.7364 1.26506 15.682 0 12.5001 0Z" fill="url(#paint0_linear_45_399)"/>
<path d="M5.93197 11.8733C9.43072 10.3493 11.7632 9.34454 12.9295 8.85904C16.2632 7.47285 16.9551 7.2321 17.407 7.22395C17.5063 7.22235 17.7276 7.24692 17.872 7.36364C17.992 7.46207 18.0257 7.5952 18.0426 7.68867C18.0576 7.78204 18.0782 7.99485 18.0613 8.16098C17.8813 10.0585 17.0995 14.6631 16.702 16.7884C16.5351 17.6877 16.2032 17.9892 15.8826 18.0186C15.1851 18.0827 14.6563 17.5581 13.9813 17.1158C12.9257 16.4234 12.3295 15.9925 11.3038 15.3169C10.1188 14.5362 10.8876 14.107 11.5626 13.4057C11.7388 13.2222 14.8101 10.4294 14.8682 10.176C14.8757 10.1444 14.8832 10.0262 14.812 9.96398C14.7426 9.90154 14.6395 9.92292 14.5645 9.93979C14.4576 9.96379 12.772 11.079 9.50197 13.2854C9.02384 13.6142 8.59072 13.7745 8.20072 13.7661C7.77322 13.7569 6.94822 13.5239 6.33509 13.3247C5.58509 13.0804 4.98697 12.9512 5.03947 12.5363C5.06572 12.3203 5.36384 12.0992 5.93197 11.8733Z" fill="white"/>
</g>
<defs>
<linearGradient id="paint0_linear_45_399" x1="1200.5" y1="0" x2="1200.5" y2="2400" gradientUnits="userSpaceOnUse">
<stop stop-color="#2AABEE"/>
<stop offset="1" stop-color="#229ED9"/>
</linearGradient>
<clipPath id="clip0_45_399">
<rect width="24" height="24" fill="white" transform="translate(0.500122)"/>
</clipPath>
</defs>
</svg>
