<svg width="25" height="24" viewBox="0 0 25 24" fill="none" xmlns="http://www.w3.org/2000/svg">
<g clip-path="url(#clip0_45_395)">
<path d="M1.10131 11.8563C1.10075 13.8728 1.62763 15.8417 2.62949 17.5771L1.00549 23.5066L7.07359 21.9156C8.75195 22.8292 10.6324 23.308 12.5434 23.3081H12.5484C18.8567 23.3081 23.9919 18.1748 23.9946 11.8653C23.9958 8.80792 22.8062 5.93295 20.6449 3.76997C18.484 1.60718 15.6101 0.415458 12.5479 0.414062C6.2388 0.414062 1.104 5.54709 1.1014 11.8563" fill="url(#paint0_linear_45_395)"/>
<path d="M0.692675 11.8527C0.692023 13.9417 1.23779 15.981 2.27537 17.7786L0.59314 23.9207L6.87881 22.2726C8.61072 23.2168 10.5607 23.7147 12.5449 23.7154H12.55C19.0847 23.7154 24.4043 18.3975 24.4071 11.8621C24.4082 8.69488 23.1758 5.71656 20.9373 3.47609C18.6985 1.23591 15.7218 0.00130233 12.55 0C6.01416 0 0.695279 5.31721 0.692675 11.8527ZM4.43602 17.469L4.20133 17.0965C3.21472 15.5277 2.69398 13.7149 2.69472 11.8534C2.69677 6.4213 7.11761 2.00186 12.5537 2.00186C15.1863 2.00298 17.6603 3.02921 19.5211 4.89116C21.3819 6.7533 22.4058 9.22865 22.4051 11.8614C22.4027 17.2935 17.9818 21.7135 12.55 21.7135H12.5461C10.7774 21.7126 9.04281 21.2376 7.53007 20.34L7.17007 20.1265L3.44002 21.1045L4.43602 17.469Z" fill="url(#paint1_linear_45_395)"/>
<path d="M9.58642 6.89746C9.36447 6.40416 9.13088 6.39421 8.91982 6.38556C8.74698 6.37811 8.5494 6.37867 8.352 6.37867C8.15442 6.37867 7.8334 6.453 7.56205 6.74928C7.29042 7.04583 6.52502 7.76249 6.52502 9.22007C6.52502 10.6776 7.5867 12.0864 7.7347 12.2843C7.88288 12.4817 9.78428 15.5686 12.7956 16.7562C15.2983 17.743 15.8076 17.5468 16.3508 17.4973C16.894 17.448 18.1037 16.7808 18.3505 16.089C18.5975 15.3973 18.5975 14.8043 18.5234 14.6804C18.4494 14.557 18.2518 14.4829 17.9555 14.3348C17.6593 14.1867 16.2026 13.4698 15.9311 13.371C15.6594 13.2722 15.462 13.2229 15.2644 13.5195C15.0668 13.8157 14.4994 14.4829 14.3265 14.6804C14.1538 14.8785 13.9808 14.9031 13.6847 14.755C13.3882 14.6063 12.434 14.2938 11.302 13.2846C10.4213 12.4993 9.8267 11.5296 9.65386 11.2329C9.48102 10.9367 9.63535 10.7762 9.78391 10.6285C9.91702 10.4958 10.0803 10.2826 10.2286 10.1096C10.3763 9.93663 10.4256 9.81318 10.5244 9.6156C10.6233 9.41783 10.5738 9.24481 10.4998 9.09663C10.4256 8.94844 9.84986 7.48323 9.58642 6.89746Z" fill="white"/>
</g>
<defs>
<linearGradient id="paint0_linear_45_395" x1="1150.46" y1="2309.67" x2="1150.46" y2="0.414062" gradientUnits="userSpaceOnUse">
<stop stop-color="#1FAF38"/>
<stop offset="1" stop-color="#60D669"/>
</linearGradient>
<linearGradient id="paint1_linear_45_395" x1="1191.29" y1="2392.07" x2="1191.29" y2="0" gradientUnits="userSpaceOnUse">
<stop stop-color="#F9F9F9"/>
<stop offset="1" stop-color="white"/>
</linearGradient>
<clipPath id="clip0_45_395">
<rect width="24" height="24" fill="white" transform="translate(0.500122)"/>
</clipPath>
</defs>
</svg>
