<svg width="40" height="40" viewBox="0 0 40 40" fill="none" xmlns="http://www.w3.org/2000/svg">
<path d="M15 33.3333C11.2778 33.3333 8.125 32.0417 5.54166 29.4583C2.95833 26.875 1.66666 23.7222 1.66666 20C1.66666 16.2778 2.95833 13.125 5.54166 10.5417C8.125 7.95834 11.2778 6.66667 15 6.66667H25C28.7222 6.66667 31.875 7.95834 34.4583 10.5417C37.0417 13.125 38.3333 16.2778 38.3333 20C38.3333 23.7222 37.0417 26.875 34.4583 29.4583C31.875 32.0417 28.7222 33.3333 25 33.3333H15ZM15 30H25C27.7778 30 30.1389 29.0278 32.0833 27.0833C34.0278 25.1389 35 22.7778 35 20C35 17.2222 34.0278 14.8611 32.0833 12.9167C30.1389 10.9722 27.7778 10 25 10H15C12.2222 10 9.86111 10.9722 7.91666 12.9167C5.97222 14.8611 5 17.2222 5 20C5 22.7778 5.97222 25.1389 7.91666 27.0833C9.86111 29.0278 12.2222 30 15 30ZM20 23.3333C20.9167 23.3333 21.7017 23.0072 22.355 22.355C23.0083 21.7028 23.3344 20.9178 23.3333 20C23.3322 19.0822 23.0061 18.2978 22.355 17.6467C21.7039 16.9956 20.9189 16.6689 20 16.6667C19.0811 16.6644 18.2967 16.9911 17.6467 17.6467C16.9967 18.3022 16.67 19.0867 16.6667 20C16.6633 20.9133 16.99 21.6983 17.6467 22.355C18.3033 23.0117 19.0878 23.3378 20 23.3333ZM18.3333 15H21.6667C22.1389 15 22.535 14.84 22.855 14.52C23.175 14.2 23.3344 13.8044 23.3333 13.3333C23.3322 12.8622 23.1722 12.4667 22.8533 12.1467C22.5344 11.8267 22.1389 11.6667 21.6667 11.6667H18.3333C17.8611 11.6667 17.4656 11.8267 17.1467 12.1467C16.8278 12.4667 16.6678 12.8622 16.6667 13.3333C16.6656 13.8044 16.8256 14.2006 17.1467 14.5217C17.4678 14.8428 17.8633 15.0022 18.3333 15ZM18.3333 28.3333H21.6667C22.1389 28.3333 22.535 28.1733 22.855 27.8533C23.175 27.5333 23.3344 27.1378 23.3333 26.6667C23.3322 26.1956 23.1722 25.8 22.8533 25.48C22.5344 25.16 22.1389 25 21.6667 25H18.3333C17.8611 25 17.4656 25.16 17.1467 25.48C16.8278 25.8 16.6678 26.1956 16.6667 26.6667C16.6656 27.1378 16.8256 27.5339 17.1467 27.855C17.4678 28.1761 17.8633 28.3356 18.3333 28.3333ZM26.6667 23.3333C27.1389 23.3333 27.535 23.1733 27.855 22.8533C28.175 22.5333 28.3344 22.1378 28.3333 21.6667V18.3333C28.3333 17.8611 28.1733 17.4656 27.8533 17.1467C27.5333 16.8278 27.1378 16.6678 26.6667 16.6667C26.1956 16.6656 25.8 16.8256 25.48 17.1467C25.16 17.4678 25 17.8633 25 18.3333V21.6667C25 22.1389 25.16 22.535 25.48 22.855C25.8 23.175 26.1956 23.3344 26.6667 23.3333ZM13.3333 23.3333C13.8056 23.3333 14.2017 23.1733 14.5217 22.8533C14.8417 22.5333 15.0011 22.1378 15 21.6667V18.3333C15 17.8611 14.84 17.4656 14.52 17.1467C14.2 16.8278 13.8044 16.6678 13.3333 16.6667C12.8622 16.6656 12.4667 16.8256 12.1467 17.1467C11.8267 17.4678 11.6667 17.8633 11.6667 18.3333V21.6667C11.6667 22.1389 11.8267 22.535 12.1467 22.855C12.4667 23.175 12.8622 23.3344 13.3333 23.3333Z" fill="#4CA750"/>
</svg>
